<svg xmlns="http://www.w3.org/2000/svg" width="18" height="18"  viewBox="0 0 18 18"><g transform="matrix(1 0 0 1 0 0)"  ><g style=""   ><g transform="matrix(0.64 0 0 0.64 9 5.46)"  ><polyline style="stroke: rgb(108,78,235); stroke-width: 2.4; stroke-dasharray: none; stroke-linecap: butt; stroke-dashoffset: 0; stroke-linejoin: miter; stroke-miterlimit: 10; fill: none; fill-rule: nonzero; opacity: 1;"  points="-11,4.5 0,-4.5 11,4.5 " /></g><g transform="matrix(0.64 0 0 0.64 9 14.14)"  ><polyline style="stroke: rgb(108,78,235); stroke-width: 2.4; stroke-dasharray: none; stroke-linecap: butt; stroke-dashoffset: 0; stroke-linejoin: miter; stroke-miterlimit: 10; fill: none; fill-rule: nonzero; opacity: 1;"  points="-2,3 -2,-3 2,-3 2,3 " /></g><g transform="matrix(0.64 0 0 0.64 9 12.86)"  ><path style="stroke: rgb(108,78,235); stroke-width: 2.4; stroke-dasharray: none; stroke-linecap: square; stroke-dashoffset: 0; stroke-linejoin: miter; stroke-miterlimit: 10; fill: none; fill-rule: nonzero; opacity: 1;"  transform=" translate(-12, -18)" d="M 4 13 L 4 21 C 4 22.105 4.895 23 6 23 L 18 23 C 19.105 23 20 22.105 20 21 L 20 13" stroke-linecap="round" /></g></g></g></svg>