<svg xmlns="http://www.w3.org/2000/svg" width="12" height="12"  viewBox="0 0 12 12"><g transform="matrix(1 0 0 1 0 0)"  ><g style=""   ><g transform="matrix(0.5 0 0 0.5 6 5.9)"  ><path style="stroke: none; stroke-width: 1; stroke-dasharray: none; stroke-linecap: butt; stroke-dashoffset: 0; stroke-linejoin: miter; stroke-miterlimit: 4; fill: rgb(22,24,29); fill-rule: nonzero; opacity: 1;"  transform=" translate(-12, -11.79)" d="M 11.2367 2.20032 C 11.5192 1.52111 12.4814 1.52112 12.7639 2.20033 L 15.0875 7.78692 C 15.2066 8.07326 15.4759 8.2689 15.785 8.29369 L 21.8162 8.7772 C 22.5495 8.83599 22.8468 9.75107 22.2881 10.2296 L 17.693 14.1659 C 17.4575 14.3676 17.3546 14.6842 17.4266 14.9858 L 18.8305 20.8712 C 19.0012 21.5868 18.2227 22.1523 17.595 21.7689 L 12.4314 18.615 C 12.1668 18.4534 11.8339 18.4534 11.5693 18.615 L 6.4057 21.7689 C 5.77793 22.1523 4.99951 21.5868 5.17019 20.8712 L 6.57408 14.9858 C 6.64604 14.6842 6.54318 14.3676 6.30766 14.1659 L 1.71252 10.2296 C 1.15385 9.75107 1.45118 8.83599 2.18445 8.7772 L 8.21565 8.29369 C 8.52477 8.2689 8.79405 8.07326 8.91315 7.78692 L 11.2367 2.20032 Z" stroke-linecap="round" /></g></g></g></svg>